<?xml version="1.0" encoding="UTF-8"?>
<svg id="Layer_1" data-name="Layer 1" xmlns="http://www.w3.org/2000/svg" viewBox="0 0 210.47 84.32">
  <defs>
    <style>
      .cls-1 {
        fill: #f0bf18;
      }
    </style>
  </defs>
  <path class="cls-1" d="M94.92,20.17l-33-7.67L57.42,0s-13.83,3.33-33.83,20C.58,41.67,0,57.08,0,57.08c0,0,13.58-17.75,28.92-17.75,13.17,0,14.5,14,14.5,14,0,0,4.83-6,20.5-6,39.67,0,41.32,36.99,41.32,36.99V15.83l-2.99-.67-4.17-8.5-3.17,13.5Z"/>
  <path class="cls-1" d="M115.56,20.17l33-7.67,4.5-12.5s13.83,3.33,33.83,20c23,21.67,23.58,37.08,23.58,37.08,0,0-13.58-17.75-28.92-17.75-13.17,0-14.5,14-14.5,14,0,0-4.83-6-20.5-6-39.67,0-41.32,36.99-41.32,36.99V15.83l2.99-.67,4.17-8.5,3.17,13.5Z"/>
</svg>